<svg width="34" height="30" viewBox="0 0 34 30" fill="none" xmlns="http://www.w3.org/2000/svg">
	<g clip-path="url(#clip0)">
		<path d="M7.53512 18.1294L6.35163 22.0278L2.02599 22.1085C0.733258 19.9929 0 17.5723 0 15C0 12.5127 0.685578 10.1671 1.90081 8.10168H1.90174L5.75277 8.72465L7.43976 12.1022C7.08668 13.0105 6.89423 13.9855 6.89423 15C6.89436 16.1011 7.12041 17.1561 7.53512 18.1294Z" fill="#FBBB00" />
		<path d="M33.703 12.1978C33.8982 13.1051 34 14.0422 34 14.9999C34 16.0738 33.8721 17.1214 33.6283 18.1318C32.8008 21.5703 30.6384 24.5728 27.6428 26.6975L27.6419 26.6967L22.7913 26.4783L22.1048 22.6969C24.0925 21.6684 25.6459 20.0588 26.4641 18.1318H17.3738V12.1978H26.5967H33.703Z" fill="#518EF8" />
		<path d="M27.6417 26.6967L27.6426 26.6975C24.7293 28.7637 21.0285 30 16.9999 30C10.5259 30 4.89722 26.8071 2.02588 22.1085L7.53501 18.1294C8.97064 21.5101 12.6667 23.9168 16.9999 23.9168C18.8624 23.9168 20.6073 23.4725 22.1045 22.697L27.6417 26.6967Z" fill="#28B446" />
		<path d="M27.8511 3.45328L22.3438 7.43156C20.7943 6.57691 18.9625 6.0832 17.0001 6.0832C12.5688 6.0832 8.80361 8.60021 7.43989 12.1022L1.90181 8.10164H1.90088C4.73018 3.28846 10.4298 0 17.0001 0C21.1249 0 24.9069 1.29645 27.8511 3.45328Z" fill="#F14336" />
	</g>
	<defs>
		<clipPath id="clip0">
			<rect width="34" height="30" fill="white" />
		</clipPath>
	</defs>
</svg>
