<svg width="15" height="16" viewBox="0 0 15 16" fill="none" xmlns="http://www.w3.org/2000/svg">
<path d="M3.18 15.88C3.18 15.7067 3.14667 15.62 3.08 15.62L2.62 15.84C2.62 15.7467 2.56667 15.68 2.46 15.64L2.3 15.62C2.19333 15.62 2.06 15.6667 1.9 15.76C1.87333 15.6933 1.84 15.6267 1.8 15.56C1.76 15.4933 1.72667 15.4333 1.7 15.38C1.52667 15.0467 1.35333 14.68 1.18 14.28C1.02 13.8667 0.866667 13.4733 0.72 13.1C0.586667 12.7267 0.48 12.4333 0.4 12.22C0.346667 12.0467 0.286667 11.7867 0.22 11.44C0.153333 11.0933 0.0866667 10.6533 0.0200001 10.12C0.166667 10.2133 0.28 10.26 0.36 10.26C0.453333 10.26 0.54 10.12 0.62 9.84C0.66 9.89333 0.733333 9.92 0.84 9.92C0.92 9.92 0.98 9.89333 1.02 9.84L1.34 9.36L1.7 9.48H1.72C1.74667 9.48 1.77333 9.46667 1.8 9.44C1.82667 9.41333 1.86667 9.38667 1.92 9.36C2.02667 9.29333 2.10667 9.26 2.16 9.26L2.22 9.28C2.55333 9.44 2.76667 9.73333 2.86 10.16C3.1 11.1733 3.34 11.68 3.58 11.68C3.82 11.68 4.1 11.4267 4.42 10.92C4.58 10.6667 4.74 10.3733 4.9 10.04C5.07333 9.70667 5.24667 9.33333 5.42 8.92C5.44667 9.08 5.47333 9.16 5.5 9.16C5.56667 9.16 5.68 8.99333 5.84 8.66C6.01333 8.32667 6.28667 7.86667 6.66 7.28C6.87333 6.92 7.14 6.51333 7.46 6.06C7.79333 5.60667 8.14667 5.14 8.52 4.66C8.89333 4.18 9.25333 3.72667 9.6 3.3C9.96 2.87333 10.28 2.50667 10.56 2.2C10.84 1.89333 11.0467 1.69333 11.18 1.6C11.6867 1.25333 12.0867 0.919999 12.38 0.599999C12.3667 0.693332 12.3467 0.779999 12.32 0.86C12.3067 0.926666 12.3 0.973333 12.3 0.999999C12.3 1.05333 12.3267 1.08 12.38 1.08L12.94 0.799999V0.879999C12.94 0.986666 12.9667 1.04 13.02 1.04C13.06 1.04 13.14 0.98 13.26 0.86C13.38 0.74 13.4467 0.653333 13.46 0.599999L13.42 0.879999L14.1 0.48L13.94 0.84C14.1533 0.693333 14.3067 0.619999 14.4 0.619999C14.4533 0.619999 14.4933 0.653332 14.52 0.719999C14.5467 0.773333 14.56 0.826666 14.56 0.879999C14.56 0.959999 14.5267 1.05333 14.46 1.16C14.3933 1.26667 14.3067 1.39333 14.2 1.54C14.12 1.64667 13.9867 1.80667 13.8 2.02C13.6267 2.22 13.36 2.52 13 2.92C12.64 3.30667 12.16 3.84667 11.56 4.54C11.4 4.71333 11.1533 5.02 10.82 5.46C10.4867 5.88667 10.1067 6.38667 9.68 6.96C9.26667 7.52 8.85333 8.08667 8.44 8.66C8.02667 9.23333 7.66 9.75333 7.34 10.22C7.02 10.6733 6.79333 11.0133 6.66 11.24L5.42 13.34C5.15333 13.7933 4.93333 14.1667 4.76 14.46C4.58667 14.74 4.45333 14.9333 4.36 15.04C4.16 15.28 3.94 15.4933 3.7 15.68L3.52 15.58L3.36 15.68L3.18 15.88Z" fill="#F3B007"/>
</svg>
