<svg id="Layer_1" data-name="Layer 1" xmlns="http://www.w3.org/2000/svg" viewBox="0 0 2989.51 1031.09"><defs><style>.cls-1{font-size:650.85px;fill:#020202;}.cls-1,.cls-3{font-family:LeagueSpartan-Bold, League Spartan;font-weight:700;}.cls-2{fill:#35b729;}.cls-3{font-size:687.22px;fill:#fff;}</style></defs><title>svz2</title><text class="cls-1" transform="translate(968.22 675.52) scale(1.08 1)">prout</text><rect class="cls-2" y="118.71" width="873.72" height="779.34"/><path class="cls-2" d="M2512.76,243.77a111.46,111.46,0,0,0,5.46-11c1.54-3.55,2.62-6.54,3.81-9.84.85-2.36,2.18-6,3.08-9a83.74,83.74,0,0,0,3.09-19.38,105,105,0,0,0-.44-21.73,99.18,99.18,0,0,0-3.38-15.92,145.7,145.7,0,0,0-7.82-18.9,137.33,137.33,0,0,0-26-36c-5.54,5.17-39.63,38.08-38.43,87.93a110.06,110.06,0,0,0,9.63,42.15,105.68,105.68,0,0,0,12.35,23.33,97.11,97.11,0,0,0,15.56,17.29c1.53-1.51,3.1-3.13,4.69-4.87,1.78-1.94,3.32-3.75,4.83-5.57C2505.36,254.71,2509,250.35,2512.76,243.77Z" transform="translate(0 -101.95)"/><path class="cls-2" d="M2475.85,299.84a117.88,117.88,0,0,0-3.09-12c-1.16-3.72-2.28-6.68-3.52-9.94-.89-2.34-2.28-6-3.53-8.8a76.29,76.29,0,0,0-10-16.07,88.35,88.35,0,0,0-13.9-14.92,78.62,78.62,0,0,0-12.29-8.49,110,110,0,0,0-17.22-7.05,108,108,0,0,0-40.49-4.64c-.59,8-3.51,58.29,28.5,92.35a86.4,86.4,0,0,0,33,21.94,80.81,80.81,0,0,0,23.12,6.56,78.46,78.46,0,0,0,21.54-.23c.11-2.28.18-4.67.19-7.16,0-2.78,0-5.27-.15-7.76C2477.6,313.42,2477.35,307.49,2475.85,299.84Z" transform="translate(0 -101.95)"/><path class="cls-2" d="M2538.91,336.6a84.1,84.1,0,0,0,10.58-3.56c3.27-1.33,5.86-2.62,8.73-4.05,2.05-1,5.25-2.61,7.72-4.05,6.19-3.6,10.37-7.74,14.09-11.43a90,90,0,0,0,13.06-15.87,93.08,93.08,0,0,0,7.42-14,149.91,149.91,0,0,0,6.14-19.62,157.09,157.09,0,0,0,3.92-46.08c-7.07-.63-51.25-3.78-81.07,32.77a104.65,104.65,0,0,0-19.17,37.63,113.34,113.34,0,0,0-5.68,26.33,116.43,116.43,0,0,0,.28,24.51c2,.11,4.11.18,6.29.18,2.45,0,4.64-.07,6.83-.2C2527,338.64,2532.2,338.33,2538.91,336.6Z" transform="translate(0 -101.95)"/><text class="cls-3" transform="translate(171.69 789.88) scale(1.08 1)">S</text></svg>